<?xml version="1.0" encoding="UTF-8"?>
<svg width="453px" height="487px" viewBox="0 0 453 487" version="1.1" xmlns="http://www.w3.org/2000/svg" xmlns:xlink="http://www.w3.org/1999/xlink">
    <!-- Generator: Sketch 51.3 (57544) - http://www.bohemiancoding.com/sketch -->
    <title>shopping-cart</title>
    <desc>Created with Sketch.</desc>
    <defs></defs>
    <g id="Page-1" stroke="none" stroke-width="1" fill="none" fill-rule="evenodd">
        <g id="shopping-cart" fill="#FFFFFF" fill-rule="nonzero">
            <path d="M129.069,320.369 L397.169,320.369 C427.569,320.369 452.369,295.569 452.369,265.169 L452.369,152.369 C452.369,152.269 452.369,152.069 452.369,151.969 C452.369,151.669 452.369,151.469 452.369,151.169 C452.369,150.969 452.369,150.769 452.269,150.569 C452.269,150.369 452.169,150.069 452.169,149.869 C452.169,149.669 452.069,149.469 452.069,149.269 C451.969,149.069 451.969,148.869 451.869,148.569 C451.769,148.369 451.769,148.169 451.669,147.969 C451.569,147.769 451.569,147.569 451.469,147.369 C451.369,147.169 451.269,146.969 451.169,146.669 C451.069,146.469 450.969,146.269 450.869,146.169 C450.769,145.969 450.669,145.769 450.569,145.569 C450.469,145.369 450.369,145.269 450.269,145.069 C450.169,144.869 449.969,144.669 449.869,144.469 C449.769,144.269 449.669,144.169 449.469,143.969 C449.369,143.769 449.169,143.669 449.069,143.469 C448.969,143.269 448.769,143.169 448.669,142.969 C448.569,142.769 448.369,142.669 448.269,142.569 C448.069,142.369 447.969,142.269 447.769,142.069 C447.569,141.969 447.469,141.769 447.269,141.669 C447.069,141.569 446.869,141.369 446.669,141.269 C446.469,141.169 446.369,141.069 446.169,140.969 C445.969,140.869 445.769,140.769 445.569,140.569 C445.369,140.469 445.169,140.369 444.969,140.269 C444.769,140.169 444.569,140.069 444.369,139.969 C444.169,139.869 443.969,139.769 443.769,139.669 C443.569,139.569 443.369,139.569 443.169,139.469 C442.969,139.369 442.669,139.269 442.469,139.269 C442.269,139.269 442.069,139.169 441.969,139.169 C441.669,139.069 441.469,139.069 441.169,139.069 C441.069,139.069 440.969,138.969 440.769,138.969 L100.969,92.069 L100.969,44.669 C100.969,44.169 100.969,43.669 100.869,43.269 C100.869,43.169 100.869,43.069 100.769,42.869 C100.769,42.569 100.669,42.269 100.669,41.969 C100.569,41.669 100.569,41.469 100.469,41.169 C100.469,40.969 100.369,40.869 100.369,40.669 C100.269,40.369 100.169,40.069 100.069,39.769 C100.069,39.669 99.969,39.469 99.969,39.369 C99.869,39.069 99.769,38.869 99.569,38.569 C99.469,38.469 99.469,38.269 99.369,38.169 C99.269,37.969 99.169,37.769 98.969,37.569 C98.869,37.369 98.769,37.269 98.669,37.069 C98.569,36.869 98.469,36.769 98.369,36.569 C98.269,36.369 98.069,36.169 97.969,35.969 C97.869,35.869 97.769,35.769 97.669,35.669 C97.469,35.469 97.269,35.269 97.069,35.069 C96.969,34.969 96.869,34.869 96.769,34.769 C96.569,34.569 96.369,34.369 96.069,34.169 C95.969,34.069 95.769,33.969 95.669,33.869 C95.469,33.669 95.269,33.569 95.069,33.369 C94.769,33.169 94.469,32.969 94.269,32.869 C94.169,32.769 94.069,32.769 93.969,32.669 C93.569,32.469 93.069,32.269 92.669,32.069 L18.969,1.069 C12.069,-1.831 4.169,1.369 1.269,8.269 C-1.631,15.169 1.569,23.069 8.469,25.969 L73.869,53.569 L73.869,114.769 L73.869,124.469 L73.869,198.869 L73.869,265.369 L73.869,349.369 C73.869,377.369 94.869,400.569 121.969,404.069 C117.069,412.269 114.169,421.869 114.169,432.069 C114.169,462.169 138.669,486.569 168.669,486.569 C198.669,486.569 223.169,462.069 223.169,432.069 C223.169,422.069 220.469,412.569 215.669,404.569 L337.069,404.569 C332.269,412.669 329.569,422.069 329.569,432.069 C329.569,462.169 354.069,486.569 384.069,486.569 C414.069,486.569 438.569,462.069 438.569,432.069 C438.569,402.069 414.069,377.569 384.069,377.569 L129.069,377.569 C113.469,377.569 100.869,364.869 100.869,349.369 L100.869,312.769 C109.069,317.569 118.769,320.369 129.069,320.369 Z M196.269,431.969 C196.269,447.169 183.869,459.469 168.769,459.469 C153.669,459.469 141.269,447.069 141.269,431.969 C141.269,416.869 153.669,404.469 168.769,404.469 C183.869,404.469 196.269,416.769 196.269,431.969 Z M411.669,431.969 C411.669,447.169 399.269,459.469 384.169,459.469 C369.069,459.469 356.669,447.069 356.669,431.969 C356.669,416.869 369.069,404.469 384.169,404.469 C399.269,404.469 411.669,416.769 411.669,431.969 Z M397.169,293.369 L129.069,293.369 C113.469,293.369 100.869,280.669 100.869,265.169 L100.869,198.669 L100.869,124.269 L100.869,119.269 L425.369,163.969 L425.369,265.069 C425.369,280.769 412.669,293.369 397.169,293.369 Z" id="Shape"></path>
        </g>
    </g>
</svg>